<svg width="40" height="30" viewBox="0 0 40 30" fill="none" xmlns="http://www.w3.org/2000/svg">
<path fill-rule="evenodd" clip-rule="evenodd" d="M2 0C0.895431 0 0 0.89543 0 2V23C0 24.1046 0.895431 25 2 25H4C4 26.1256 4.37195 27.1644 4.99963 28H1C0.447715 28 0 28.4477 0 29C0 29.5523 0.447714 30 0.999999 30H39C39.5523 30 40 29.5523 40 29C40 28.4477 39.5523 28 39 28H38.0004C38.6281 27.1644 39 26.1256 39 25C39.5523 25 40 24.5523 40 24V17L34.5826 7.97101C34.2212 7.3686 33.5701 7 32.8676 7H27V2C27 0.895431 26.1046 0 25 0H2ZM27 9H33.2941L34.4706 11H31C29.8954 11 29 11.8954 29 13V16C29 17.1046 29.8954 18 31 18H38V21.9995C37.0878 20.7853 35.6356 20 34 20C31.9496 20 30.1876 21.2341 29.416 23H27V9ZM37.4117 16L35.647 13H31V16H37.4117ZM13.0004 28H29.9996C29.3719 27.1644 29 26.1256 29 25H14C14 26.1256 13.6281 27.1644 13.0004 28ZM37 25C37 26.6569 35.6569 28 34 28C32.3431 28 31 26.6569 31 25C31 23.3431 32.3431 22 34 22C35.6569 22 37 23.3431 37 25ZM9 28C7.34314 28 6 26.6569 6 25C6 23.3431 7.34314 22 9 22C10.6569 22 12 23.3431 12 25C12 26.6569 10.6569 28 9 28ZM2 23H4.41608C5.18762 21.2341 6.94971 20 9 20C11.0503 20 12.8124 21.2341 13.5839 23H25V2H2V14H4C5.10457 14 6 14.8954 6 16V18C6 19.1046 5.10457 20 4 20H2V23ZM4 18V16H2V18H4ZM9 26C9.55231 26 10 25.5523 10 25C10 24.4477 9.55231 24 9 24C8.44769 24 8 24.4477 8 25C8 25.5523 8.44769 26 9 26ZM34 26C34.5522 26 35 25.5523 35 25C35 24.4477 34.5522 24 34 24C33.4478 24 33 24.4477 33 25C33 25.5523 33.4478 26 34 26ZM11 5C11 4.44772 11.4477 4 12 4H22C22.5523 4 23 4.44772 23 5C23 5.55228 22.5523 6 22 6H12C11.4477 6 11 5.55228 11 5ZM23 9C23 8.44772 22.5523 8 22 8H16C15.4477 8 15 8.44772 15 9C15 9.55228 15.4477 10 16 10H22C22.5523 10 23 9.55228 23 9ZM7 5C7 4.44772 7.44772 4 8 4C8.55228 4 9 4.44772 9 5C9 5.55228 8.55228 6 8 6C7.44772 6 7 5.55228 7 5Z" fill="#4ED67D"/>
</svg>
